#!OML:ASF F:\VICON\USERDATA\INSTALL\rory3\rory3.ASF
:FULLY-SPECIFIED
:DEGREES
216
root 8.83753 18.3335 -9.03188 -188.28 -7.02826 180.088
lowerback 11.7093 0.667125 0.183278
upperback 0.924379 0.838733 0.672404
thorax -5.60734 0.367903 0.468943
lowerneck -16.9577 -3.38302 -12.9299
upperneck 34.2395 -6.35283 7.68562
head 15.5515 -4.28368 4.12184
rclavicle 2.68049e-015 -1.39149e-014
rhumerus -33.2598 -12.8424 -77.0063
rradius 37.8862
rwrist 2.51214
rhand -15.1845 5.92165
rfingers 7.12502
rthumb 10.9868 -23.7709
lclavicle 2.68049e-015 -1.39149e-014
lhumerus -35.415 15.5045 78.7972
lradius 26.608
lwrist -5.49523
lhand -17.1459 27.3033
lfingers 7.12502
lthumb 9.09457 57.0872
rfemur -0.434422 -2.31265 22.7336
rtibia 32.6668
rfoot -6.25041 -3.2819
rtoes -10.5116
lfemur -5.03701 -1.11471 -19.8312
ltibia 51.8536
lfoot -6.45445 -0.487039
ltoes -8.96531
217
root 8.82858 18.3425 -8.92743 -188.229 -6.90944 180.016
lowerback 11.5607 0.617078 0.125818
upperback 0.956772 0.764835 0.698948
thorax -5.49085 0.333139 0.542501
lowerneck -17.1307 -3.36995 -12.9704
upperneck 34.2214 -6.2821 7.71603
head 15.5765 -4.24503 4.15493
rclavicle 2.0158e-014 1.66979e-014
rhumerus -33.5047 -12.6802 -76.9077
rradius 37.5275
rwrist 2.73563
rhand -15.2591 6.18426
rfingers 7.12502
rthumb 10.9148 -23.5121
lclavicle 2.0158e-014 1.66979e-014
lhumerus -35.1513 15.2268 79.1636
lradius 27.0014
lwrist -5.56455
lhand -17.1479 27.6585
lfingers 7.12502
lthumb 9.09264 57.4425
rfemur -0.851247 -2.21156 22.6371
rtibia 32.6308
rfoot -5.97115 -3.28235
rtoes -10.0848
lfemur -4.35903 -1.01509 -19.849
ltibia 52.0565
lfoot -6.09024 -0.481317
ltoes -9.10066
218
root 8.82241 18.3489 -8.82 -188.274 -6.86348 179.943
lowerback 11.5494 0.551997 0.0303879
upperback 1.01128 0.663845 0.732229
thorax -5.42782 0.28441 0.647768
lowerneck -17.2631 -3.39082 -12.9916
upperneck 34.1135 -6.22339 7.67243
head 15.547 -4.21066 4.14865
rclavicle -1.48529e-014 -3.97569e-015
rhumerus -33.7649 -12.5248 -76.8095
rradius 37.2646
rwrist 2.97781
rhand -15.069 5.8716
rfingers 7.12502
rthumb 11.0982 -23.8149
lclavicle -1.48529e-014 -3.97569e-015
lhumerus -34.8729 15.3777 79.2777
lradius 27.014
lwrist -6.0619
lhand -17.6241 26.0755
lfingers 7.12502
lthumb 8.63308 55.879
rfemur -1.1731 -2.12819 22.5343
rtibia 32.5758
rfoot -5.79709 -3.33974
rtoes -9.16683
lfemur -3.57636 -0.952218 -19.8573
ltibia 52.1709
lfoot -5.43522 -0.506793
ltoes -9.60663
219
root 8.81584 18.3515 -8.71572 -188.349 -6.76159 180
lowerback 11.5238 0.47149 0.0510692
upperback 1.01904 0.561983 0.803915
thorax -5.40474 0.23397 0.727669
lowerneck -17.2092 -3.39895 -13.0218
upperneck 33.9841 -6.18529 7.61548
head 15.4657 -4.19836 4.1336
rclavicle -6.15611e-015 -1.11319e-014
rhumerus -34.1266 -12.3169 -76.6969
rradius 36.8856
rwrist 3.34825
rhand -14.8825 5.731
rfingers 7.12502
rthumb 11.2781 -23.9458
lclavicle -6.15611e-015 -1.11319e-014
lhumerus -34.7919 14.979 79.64
lradius 27.4868
lwrist -5.77486
lhand -17.4689 26.5237
lfingers 7.12502
lthumb 8.7829 56.3209
rfemur -1.46834 -1.99443 22.5882
rtibia 32.5494
rfoot -5.4842 -3.30799
rtoes -9.87263
lfemur -2.76279 -0.843025 -19.6807
ltibia 52.1684
lfoot -4.42242 -0.73577
ltoes -7.13422
220
root 8.80358 18.3549 -8.60952 -188.34 -6.58822 180.13
lowerback 11.4682 0.400793 0.23695
upperback 0.981041 0.496123 0.853489
thorax -5.41157 0.198563 0.685346
lowerneck -17.2434 -3.3896 -13.0453
upperneck 33.9519 -6.15795 7.63244
head 15.4559 -4.1856 4.14901
rclavicle 2.00027e-015 -2.18663e-015
rhumerus -34.453 -12.2211 -76.5563
rradius 36.3909
rwrist 3.92765
rhand -14.6649 6.05319
rfingers 7.12502
rthumb 11.4879 -23.612
lclavicle 2.00027e-015 -2.18663e-015
lhumerus -34.5127 14.6587 79.9657
lradius 27.6275
lwrist -5.52019
lhand -17.6548 26.8882
lfingers 7.12502
lthumb 8.60346 56.693
rfemur -1.90281 -1.91803 22.6747
rtibia 32.542
rfoot -5.12327 -3.04493
rtoes -11.5292
lfemur -1.98336 -0.741829 -19.4421
ltibia 52.029
lfoot -3.45385 -0.957191
ltoes -4.15199
